#!OML:ASF X:\für Bonn\!DataBase\2005_08_12_Daniel\c3d\Daniel.ASF
:FULLY-SPECIFIED
:DEGREES
183
root -0.0548061 12.4292 -3.57578 166.71 -12.6195 -181.204
lowerback 70.2288 -6.70371 18.5284
upperback 11.1614 -3.62694 -0.310919
thorax -7.76781 -4.88992 -5.53725
lowerneck 7.56585 -7.03307 -6.73963
upperneck 7.82534 -10.6012 4.32953
head 1.84757 -5.5787 2.56917
rclavicle 3.18055e-014 3.97569e-014
rhumerus 9.6104 -6.32482 -70.5444
rradius 17.4236
rwrist 13.947
rhand -23.9002 13.0362
rfingers 7.12502
rthumb 2.57374 -16.928
lclavicle 3.18055e-014 3.97569e-014
lhumerus -21.6031 -17.6763 96.0243
lradius 85.8114
lwrist -7.53038
lhand -26.5778 -2.0969
lfingers 7.12502
lthumb -0.0123575 27.8828
rfemur -50.0741 -18.1616 5.42724
rtibia 113.049
rfoot -15.6921 22.5781
rtoes -4.47996
lfemur -51.6812 9.73767 -23.4798
ltibia 110.816
lfoot -36.4281 -14.5076
ltoes 1.63386
184
root -0.0720302 12.5479 -3.60346 166.976 -12.6373 -181.095
lowerback 69.6786 -6.5109 18.2946
upperback 11.2211 -3.6061 -0.30269
thorax -7.76371 -4.84951 -5.48585
lowerneck 7.36685 -6.96706 -6.90854
upperneck 7.72486 -10.495 4.43315
head 1.85889 -5.52228 2.62769
rclavicle -7.63333e-014 7.95139e-016
rhumerus 9.03472 -5.22904 -70.5824
rradius 17.7963
rwrist 13.1804
rhand -22.8598 13.064
rfingers 7.12502
rthumb 3.57853 -16.8857
lclavicle -7.63333e-014 7.95139e-016
lhumerus -21.0529 -17.4778 96.0944
lradius 84.4055
lwrist -7.8792
lhand -26.1201 -2.0366
lfingers 7.12502
lthumb 0.429766 27.9427
rfemur -49.4672 -17.6292 5.77622
rtibia 111.922
rfoot -15.7644 22.1407
rtoes -4.41584
lfemur -50.9468 9.26505 -23.4672
ltibia 109.626
lfoot -36.5613 -14.2585
ltoes 1.60239
185
root -0.0882551 12.6691 -3.63214 167.23 -12.6521 -180.992
lowerback 69.1647 -6.33561 18.0769
upperback 11.2665 -3.58143 -0.323575
thorax -7.77164 -4.80438 -5.47236
lowerneck 7.16562 -6.91644 -7.00747
upperneck 7.60983 -10.4002 4.49628
head 1.85946 -5.46926 2.66076
rclavicle 1.59028e-015 8.74653e-015
rhumerus 8.43256 -4.12275 -70.6523
rradius 18.1648
rwrist 12.4566
rhand -21.9371 13.0592
rfingers 7.12502
rthumb 4.46951 -16.8737
lclavicle 1.59028e-015 8.74653e-015
lhumerus -20.4971 -17.33 96.1278
lradius 82.973
lwrist -8.33124
lhand -25.6324 -1.99723
lfingers 7.12502
lthumb 0.900761 27.9806
rfemur -48.8251 -17.0768 6.13312
rtibia 110.767
rfoot -15.9078 21.6444
rtoes -4.55561
lfemur -50.1571 8.79646 -23.4487
ltibia 108.387
lfoot -36.6834 -14.0143
ltoes 1.66574
186
root -0.104636 12.7911 -3.66208 167.48 -12.6768 -180.883
lowerback 68.6836 -6.1817 17.8685
upperback 11.275 -3.54972 -0.33838
thorax -7.81539 -4.75712 -5.45279
lowerneck 6.92591 -6.86032 -7.16328
upperneck 7.58523 -10.3086 4.5734
head 1.90116 -5.42094 2.70525
rclavicle 7.15625e-014 6.12257e-014
rhumerus 7.79763 -3.09959 -70.7408
rradius 18.4968
rwrist 11.9506
rhand -21.1486 13.0711
rfingers 7.12502
rthumb 5.23089 -16.8443
lclavicle 7.15625e-014 6.12257e-014
lhumerus -19.9757 -17.1636 96.209
lradius 81.52
lwrist -8.91895
lhand -25.2122 -1.84136
lfingers 7.12502
lthumb 1.30661 28.1344
rfemur -48.1679 -16.5786 6.48
rtibia 109.595
rfoot -16.0249 21.1675
rtoes -4.72358
lfemur -49.3764 8.34821 -23.4193
ltibia 107.144
lfoot -36.832 -13.7731
ltoes 1.50554
187
root -0.120373 12.9126 -3.69313 167.724 -12.6945 -180.773
lowerback 68.2208 -6.0204 17.6355
upperback 11.2871 -3.52831 -0.351021
thorax -7.85533 -4.71716 -5.4156
lowerneck 6.63151 -6.80398 -7.32347
upperneck 7.52674 -10.2063 4.64254
head 1.94014 -5.36512 2.74669
rclavicle 1.11319e-014 3.57812e-014
rhumerus 7.18131 -1.96678 -70.8474
rradius 18.8734
rwrist 11.3746
rhand -20.4321 12.9797
rfingers 7.12502
rthumb 5.92262 -16.9175
lclavicle 1.11319e-014 3.57812e-014
lhumerus -19.4352 -17.0105 96.2431
lradius 80.0817
lwrist -9.52024
lhand -24.8207 -1.65644
lfingers 7.12502
lthumb 1.68469 28.3167
rfemur -47.5064 -16.0927 6.82462
rtibia 108.418
rfoot -16.0145 20.6969
rtoes -4.63425
lfemur -48.5876 7.91673 -23.3891
ltibia 105.892
lfoot -36.9802 -13.5008
ltoes 1.38733
188
root -0.135699 13.0348 -3.72595 167.953 -12.7109 -180.671
lowerback 67.7755 -5.86613 17.3888
upperback 11.267 -3.50355 -0.379525
thorax -7.93226 -4.67346 -5.38886
lowerneck 6.41205 -6.7332 -7.43707
upperneck 7.46631 -10.0869 4.65841
head 1.95791 -5.30234 2.76589
rclavicle -9.70069e-014 -3.18055e-015
rhumerus 6.53738 -1.10779 -71.0713
rradius 19.1352
rwrist 11.2338
rhand -19.8284 12.9749
rfingers 7.12502
rthumb 6.50547 -16.9052
lclavicle -9.70069e-014 -3.18055e-015
lhumerus -18.9882 -16.8556 96.3077
lradius 78.6528
lwrist -10.2734
lhand -24.4662 -1.453
lfingers 7.12502
lthumb 2.02712 28.5171
rfemur -46.8142 -15.6005 7.15645
rtibia 107.227
rfoot -15.9818 20.202
rtoes -4.58213
lfemur -47.7597 7.52563 -23.3511
ltibia 104.624
lfoot -37.1599 -13.2508
ltoes 1.22178
189
root -0.151499 13.1525 -3.75975 168.187 -12.7262 -180.547
lowerback 67.2266 -5.70406 17.182
upperback 11.2952 -3.46747 -0.40627
thorax -7.94936 -4.62011 -5.38947
lowerneck 6.26702 -6.66761 -7.64492
upperneck 7.33106 -9.98496 4.82161
head 1.95425 -5.248 2.85608
rclavicle 1.27222e-014 2.3059e-014
rhumerus 5.92152 -0.380038 -71.3337
rradius 19.3452
rwrist 11.2527
rhand -19.3744 13.0042
rfingers 7.12502
rthumb 6.94375 -16.862
lclavicle 1.27222e-014 2.3059e-014
lhumerus -18.5178 -16.7746 96.353
lradius 77.1881
lwrist -11.0312
lhand -24.2441 -1.26973
lfingers 7.12502
lthumb 2.24161 28.6982
rfemur -46.1696 -15.1452 7.49904
rtibia 106.074
rfoot -15.9488 19.7153
rtoes -4.55558
lfemur -46.9708 7.13078 -23.2907
ltibia 103.387
lfoot -37.2904 -13.0068
ltoes 1.13472
